<svg viewBox="0 0 400 300" xmlns="http://www.w3.org/2000/svg">
  <!-- Background -->
  <rect width="400" height="300" fill="#f0f8f0"/>
  
  <!-- Toothbrush 1 -->
  <rect x="80" y="50" width="8" height="180" fill="#daa520" rx="4"/>
  <rect x="78" y="45" width="12" height="20" fill="#8b4513" rx="2"/>
  <rect x="82" y="40" width="4" height="10" fill="#228b22"/>
  <rect x="84" y="42" width="2" height="6" fill="#90ee90"/>
  <rect x="86" y="44" width="2" height="4" fill="#90ee90"/>
  <rect x="88" y="46" width="2" height="2" fill="#90ee90"/>
  
  <!-- Toothbrush 2 -->
  <rect x="130" y="50" width="8" height="180" fill="#cd853f" rx="4"/>
  <rect x="128" y="45" width="12" height="20" fill="#8b4513" rx="2"/>
  <rect x="132" y="40" width="4" height="10" fill="#228b22"/>
  <rect x="134" y="42" width="2" height="6" fill="#90ee90"/>
  <rect x="136" y="44" width="2" height="4" fill="#90ee90"/>
  <rect x="138" y="46" width="2" height="2" fill="#90ee90"/>
  
  <!-- Toothbrush 3 -->
  <rect x="180" y="50" width="8" height="180" fill="#f4a460" rx="4"/>
  <rect x="178" y="45" width="12" height="20" fill="#8b4513" rx="2"/>
  <rect x="182" y="40" width="4" height="10" fill="#228b22"/>
  <rect x="184" y="42" width="2" height="6" fill="#90ee90"/>
  <rect x="186" y="44" width="2" height="4" fill="#90ee90"/>
  <rect x="188" y="46" width="2" height="2" fill="#90ee90"/>
  
  <!-- Toothbrush 4 -->
  <rect x="230" y="50" width="8" height="180" fill="#daa520" rx="4"/>
  <rect x="228" y="45" width="12" height="20" fill="#8b4513" rx="2"/>
  <rect x="232" y="40" width="4" height="10" fill="#228b22"/>
  <rect x="234" y="42" width="2" height="6" fill="#90ee90"/>
  <rect x="236" y="44" width="2" height="4" fill="#90ee90"/>
  <rect x="238" y="46" width="2" height="2" fill="#90ee90"/>
  
  <!-- Bamboo leaves decoration -->
  <g opacity="0.7">
    <path d="M50 100 Q60 90 70 100 Q60 110 50 100" fill="#228b22"/>
    <path d="M270 120 Q280 110 290 120 Q280 130 270 120" fill="#228b22"/>
    <path d="M40 150 Q50 140 60 150 Q50 160 40 150" fill="#32cd32"/>
    <path d="M280 170 Q290 160 300 170 Q290 180 280 170" fill="#32cd32"/>
    <path d="M320 200 Q330 190 340 200 Q330 210 320 200" fill="#228b22"/>
  </g>
  
  <!-- Eco-friendly symbols -->
  <g opacity="0.8">
    <circle cx="350" cy="80" r="20" fill="#32cd32"/>
    <path d="M335 80 Q350 65 365 80 Q350 95 335 80" fill="#228b22"/>
    <text x="350" y="85" font-family="Arial, sans-serif" font-size="10" font-weight="bold" 
          text-anchor="middle" fill="#ffffff">ECO</text>
    
    <circle cx="50" cy="220" r="15" fill="#90ee90"/>
    <path d="M40 220 Q50 210 60 220 Q50 230 40 220" fill="#228b22"/>
    <text x="50" y="225" font-family="Arial, sans-serif" font-size="8" font-weight="bold" 
          text-anchor="middle" fill="#2c3e50">100%</text>
  </g>
  
  <!-- Bamboo pattern on handles -->
  <g opacity="0.4">
    <line x1="80" y1="80" x2="88" y2="80" stroke="#8b4513" stroke-width="0.5"/>
    <line x1="80" y1="100" x2="88" y2="100" stroke="#8b4513" stroke-width="0.5"/>
    <line x1="80" y1="120" x2="88" y2="120" stroke="#8b4513" stroke-width="0.5"/>
    <line x1="80" y1="140" x2="88" y2="140" stroke="#8b4513" stroke-width="0.5"/>
    <line x1="80" y1="160" x2="88" y2="160" stroke="#8b4513" stroke-width="0.5"/>
    <line x1="80" y1="180" x2="88" y2="180" stroke="#8b4513" stroke-width="0.5"/>
    <line x1="80" y1="200" x2="88" y2="200" stroke="#8b4513" stroke-width="0.5"/>
    
    <line x1="130" y1="80" x2="138" y2="80" stroke="#8b4513" stroke-width="0.5"/>
    <line x1="130" y1="100" x2="138" y2="100" stroke="#8b4513" stroke-width="0.5"/>
    <line x1="130" y1="120" x2="138" y2="120" stroke="#8b4513" stroke-width="0.5"/>
    <line x1="130" y1="140" x2="138" y2="140" stroke="#8b4513" stroke-width="0.5"/>
    <line x1="130" y1="160" x2="138" y2="160" stroke="#8b4513" stroke-width="0.5"/>
    <line x1="130" y1="180" x2="138" y2="180" stroke="#8b4513" stroke-width="0.5"/>
    <line x1="130" y1="200" x2="138" y2="200" stroke="#8b4513" stroke-width="0.5"/>
    
    <line x1="180" y1="80" x2="188" y2="80" stroke="#8b4513" stroke-width="0.5"/>
    <line x1="180" y1="100" x2="188" y2="100" stroke="#8b4513" stroke-width="0.5"/>
    <line x1="180" y1="120" x2="188" y2="120" stroke="#8b4513" stroke-width="0.5"/>
    <line x1="180" y1="140" x2="188" y2="140" stroke="#8b4513" stroke-width="0.5"/>
    <line x1="180" y1="160" x2="188" y2="160" stroke="#8b4513" stroke-width="0.5"/>
    <line x1="180" y1="180" x2="188" y2="180" stroke="#8b4513" stroke-width="0.5"/>
    <line x1="180" y1="200" x2="188" y2="200" stroke="#8b4513" stroke-width="0.5"/>
    
    <line x1="230" y1="80" x2="238" y2="80" stroke="#8b4513" stroke-width="0.5"/>
    <line x1="230" y1="100" x2="238" y2="100" stroke="#8b4513" stroke-width="0.5"/>
    <line x1="230" y1="120" x2="238" y2="120" stroke="#8b4513" stroke-width="0.5"/>
    <line x1="230" y1="140" x2="238" y2="140" stroke="#8b4513" stroke-width="0.5"/>
    <line x1="230" y1="160" x2="238" y2="160" stroke="#8b4513" stroke-width="0.5"/>
    <line x1="230" y1="180" x2="238" y2="180" stroke="#8b4513" stroke-width="0.5"/>
    <line x1="230" y1="200" x2="238" y2="200" stroke="#8b4513" stroke-width="0.5"/>
  </g>
  
  <!-- Title -->
  <text x="200" y="30" font-family="Arial, sans-serif" font-size="22" font-weight="bold" 
        text-anchor="middle" fill="#2c3e50">Bamboo Toothbrush Set</text>
  <text x="200" y="280" font-family="Arial, sans-serif" font-size="14" 
        text-anchor="middle" fill="#7f8c8d">Set of 4 • Eco-Friendly • Soft Bristles</text>
</svg>
