<svg width="500" height="500" xmlns="http://www.w3.org/2000/svg">
  <rect width="500" height="500" fill="#f8f9fa"/>
  <rect x="50" y="50" width="400" height="400" fill="#ffffff" stroke="#dee2e6" stroke-width="2" rx="20"/>
  
  <!-- Drill body -->
  <rect x="180" y="200" width="120" height="40" fill="#f39c12" rx="20"/>
  <rect x="185" y="205" width="110" height="30" fill="#e67e22" rx="15"/>
  
  <!-- Drill bit -->
  <rect x="160" y="215" width="25" height="10" fill="#95a5a6"/>
  <rect x="150" y="218" width="15" height="4" fill="#7f8c8d"/>
  
  <!-- Handle -->
  <rect x="220" y="240" width="20" height="50" fill="#2c3e50" rx="10"/>
  <rect x="225" y="245" width="10" height="40" fill="#34495e" rx="5"/>
  
  <!-- Battery -->
  <rect x="285" y="195" width="25" height="50" fill="#e74c3c" rx="5"/>
  <rect x="290" y="200" width="15" height="40" fill="#c0392b" rx="3"/>
  
  <!-- Case -->
  <rect x="150" y="320" width="200" height="60" fill="#2c3e50" rx="10"/>
  <rect x="155" y="325" width="190" height="50" fill="#34495e" rx="8"/>
  
  <!-- Drill bits in case -->
  <rect x="170" y="335" width="3" height="30" fill="#95a5a6"/>
  <rect x="180" y="335" width="3" height="30" fill="#95a5a6"/>
  <rect x="190" y="335" width="3" height="30" fill="#95a5a6"/>
  <rect x="200" y="335" width="3" height="30" fill="#95a5a6"/>
  <rect x="210" y="335" width="3" height="30" fill="#95a5a6"/>
  
  <text x="250" y="410" text-anchor="middle" font-family="Arial, sans-serif" font-size="18" font-weight="bold" fill="#2c3e50">Professional Drill Set</text>
  <text x="250" y="435" text-anchor="middle" font-family="Arial, sans-serif" font-size="14" fill="#7f8c8d">Cordless · 50-piece Kit</text>
</svg>
