<svg width="500" height="500" xmlns="http://www.w3.org/2000/svg">
  <rect width="500" height="500" fill="#f8f9fa"/>
  <rect x="50" y="50" width="400" height="400" fill="#ffffff" stroke="#dee2e6" stroke-width="2" rx="20"/>
  
  <!-- Water bottle body -->
  <rect x="200" y="150" width="100" height="200" fill="#3498db" rx="50"/>
  <rect x="205" y="155" width="90" height="190" fill="#5dade2" rx="45"/>
  
  <!-- Bottle cap -->
  <rect x="210" y="130" width="80" height="30" fill="#2c3e50" rx="15"/>
  <rect x="215" y="135" width="70" height="20" fill="#34495e" rx="10"/>
  
  <!-- Smart display -->
  <rect x="220" y="200" width="60" height="30" fill="#000000" rx="5"/>
  <text x="250" y="215" text-anchor="middle" font-family="monospace" font-size="10" fill="#00ff00">72°F</text>
  <text x="250" y="225" text-anchor="middle" font-family="monospace" font-size="8" fill="#00ff00">85% FULL</text>
  
  <!-- Temperature control buttons -->
  <circle cx="230" cy="180" r="8" fill="#e74c3c"/>
  <text x="230" y="185" text-anchor="middle" font-family="Arial, sans-serif" font-size="12" fill="#ffffff">+</text>
  <circle cx="270" cy="180" r="8" fill="#3498db"/>
  <text x="270" y="185" text-anchor="middle" font-family="Arial, sans-serif" font-size="12" fill="#ffffff">-</text>
  
  <!-- Water level indicator -->
  <rect x="315" y="160" width="8" height="180" fill="#ecf0f1" rx="4"/>
  <rect x="317" y="162" width="4" height="150" fill="#3498db" rx="2"/>
  
  <!-- Smart features icons -->
  <circle cx="180" cy="250" r="15" fill="#f39c12"/>
  <text x="180" y="255" text-anchor="middle" font-family="Arial, sans-serif" font-size="12" fill="#ffffff">📱</text>
  
  <text x="250" y="390" text-anchor="middle" font-family="Arial, sans-serif" font-size="18" font-weight="bold" fill="#2c3e50">Smart Water Bottle</text>
  <text x="250" y="415" text-anchor="middle" font-family="Arial, sans-serif" font-size="14" fill="#7f8c8d">Temperature Control · Hydration Tracking</text>
</svg>
